<mxfile host="65bd71144e">
    <diagram id="li6KdhiK4yNscijMSAPU" name="Page-1">
        <mxGraphModel dx="622" dy="461" grid="1" gridSize="10" guides="1" tooltips="1" connect="1" arrows="1" fold="1" page="1" pageScale="1" pageWidth="850" pageHeight="1100" background="#ffffff" math="0" shadow="0">
            <root>
                <mxCell id="0"/>
                <mxCell id="1" parent="0"/>
                <mxCell id="19" style="edgeStyle=none;html=1;entryX=0;entryY=0.5;entryDx=0;entryDy=0;strokeColor=#000000;fontColor=#000000;" edge="1" parent="1" source="2" target="4">
                    <mxGeometry relative="1" as="geometry"/>
                </mxCell>
                <mxCell id="20" style="edgeStyle=none;html=1;entryX=0;entryY=0.5;entryDx=0;entryDy=0;strokeColor=#000000;fontColor=#000000;" edge="1" parent="1" source="2" target="5">
                    <mxGeometry relative="1" as="geometry"/>
                </mxCell>
                <mxCell id="21" style="edgeStyle=none;html=1;entryX=0;entryY=0.5;entryDx=0;entryDy=0;strokeColor=#000000;fontColor=#000000;" edge="1" parent="1" source="2" target="6">
                    <mxGeometry relative="1" as="geometry"/>
                </mxCell>
                <mxCell id="23" style="edgeStyle=none;html=1;entryX=0;entryY=0.5;entryDx=0;entryDy=0;strokeColor=#000000;fontColor=#000000;" edge="1" parent="1" source="2" target="7">
                    <mxGeometry relative="1" as="geometry"/>
                </mxCell>
                <mxCell id="24" style="edgeStyle=none;html=1;entryX=0;entryY=0.5;entryDx=0;entryDy=0;strokeColor=#000000;fontColor=#000000;" edge="1" parent="1" source="2" target="9">
                    <mxGeometry relative="1" as="geometry"/>
                </mxCell>
                <mxCell id="25" style="edgeStyle=none;html=1;entryX=0;entryY=0.5;entryDx=0;entryDy=0;strokeColor=#000000;fontColor=#000000;" edge="1" parent="1" source="2" target="10">
                    <mxGeometry relative="1" as="geometry"/>
                </mxCell>
                <mxCell id="30" style="edgeStyle=none;html=1;entryX=0;entryY=0.5;entryDx=0;entryDy=0;strokeColor=#000000;fontColor=#000000;" edge="1" parent="1" source="2" target="13">
                    <mxGeometry relative="1" as="geometry"/>
                </mxCell>
                <mxCell id="33" style="edgeStyle=none;html=1;entryX=0;entryY=0.5;entryDx=0;entryDy=0;strokeColor=#000000;fontColor=#000000;" edge="1" parent="1" source="2" target="32">
                    <mxGeometry relative="1" as="geometry"/>
                </mxCell>
                <mxCell id="2" value="&lt;font color=&quot;#000000&quot;&gt;管理者&lt;/font&gt;" style="shape=umlActor;verticalLabelPosition=bottom;verticalAlign=top;html=1;outlineConnect=0;fillColor=none;strokeColor=#000000;" vertex="1" parent="1">
                    <mxGeometry x="80" y="140" width="40" height="80" as="geometry"/>
                </mxCell>
                <mxCell id="3" value="&lt;font color=&quot;#000000&quot;&gt;蔵書管理システム&lt;/font&gt;" style="swimlane;whiteSpace=wrap;html=1;strokeColor=#000000;fillColor=none;" vertex="1" parent="1">
                    <mxGeometry x="200" y="50" width="200" height="510" as="geometry"/>
                </mxCell>
                <mxCell id="4" value="貸出処理" style="ellipse;whiteSpace=wrap;html=1;strokeColor=#000000;fontColor=#000000;fillColor=none;" vertex="1" parent="3">
                    <mxGeometry x="51.25" y="30" width="97.5" height="50" as="geometry"/>
                </mxCell>
                <mxCell id="5" value="返却処理" style="ellipse;whiteSpace=wrap;html=1;strokeColor=#000000;fontColor=#000000;fillColor=none;" vertex="1" parent="3">
                    <mxGeometry x="51.25" y="90" width="97.5" height="50" as="geometry"/>
                </mxCell>
                <mxCell id="6" value="蔵書の検索" style="ellipse;whiteSpace=wrap;html=1;strokeColor=#000000;fontColor=#000000;fillColor=none;" vertex="1" parent="3">
                    <mxGeometry x="51.25" y="150" width="97.5" height="50" as="geometry"/>
                </mxCell>
                <mxCell id="7" value="貸出予約・確認" style="ellipse;whiteSpace=wrap;html=1;strokeColor=#000000;fontColor=#000000;fillColor=none;" vertex="1" parent="3">
                    <mxGeometry x="51.25" y="210" width="97.5" height="50" as="geometry"/>
                </mxCell>
                <mxCell id="9" value="アカウント&lt;br&gt;登録・編集" style="ellipse;whiteSpace=wrap;html=1;strokeColor=#000000;fontColor=#000000;fillColor=none;" vertex="1" parent="3">
                    <mxGeometry x="51.25" y="270" width="97.5" height="50" as="geometry"/>
                </mxCell>
                <mxCell id="10" value="アカウント&lt;br&gt;ログイン" style="ellipse;whiteSpace=wrap;html=1;strokeColor=#000000;fontColor=#000000;fillColor=none;" vertex="1" parent="3">
                    <mxGeometry x="51.25" y="330" width="97.5" height="50" as="geometry"/>
                </mxCell>
                <mxCell id="13" value="蔵書の管理" style="ellipse;whiteSpace=wrap;html=1;strokeColor=#000000;fontColor=#000000;fillColor=none;" vertex="1" parent="3">
                    <mxGeometry x="51.25" y="390" width="97.5" height="50" as="geometry"/>
                </mxCell>
                <mxCell id="32" value="貸出状況の確認" style="ellipse;whiteSpace=wrap;html=1;strokeColor=#000000;fontColor=#000000;fillColor=none;" vertex="1" parent="3">
                    <mxGeometry x="51.25" y="450" width="97.5" height="50" as="geometry"/>
                </mxCell>
                <mxCell id="37" value="&lt;font color=&quot;#000000&quot;&gt;利用者&lt;/font&gt;" style="shape=umlActor;verticalLabelPosition=bottom;verticalAlign=top;html=1;outlineConnect=0;fillColor=none;strokeColor=#000000;" vertex="1" parent="1">
                    <mxGeometry x="80" y="440" width="40" height="80" as="geometry"/>
                </mxCell>
                <mxCell id="47" value="" style="endArrow=classic;html=1;strokeColor=#000000;fontColor=#000000;" edge="1" parent="1">
                    <mxGeometry width="50" height="50" relative="1" as="geometry">
                        <mxPoint x="90" y="430" as="sourcePoint"/>
                        <mxPoint x="90" y="250" as="targetPoint"/>
                    </mxGeometry>
                </mxCell>
                <mxCell id="48" value="" style="endArrow=classic;html=1;strokeColor=#000000;fontColor=#000000;" edge="1" parent="1">
                    <mxGeometry width="50" height="50" relative="1" as="geometry">
                        <mxPoint x="110" y="250" as="sourcePoint"/>
                        <mxPoint x="110" y="430" as="targetPoint"/>
                    </mxGeometry>
                </mxCell>
                <mxCell id="52" value="利用者情報&lt;br&gt;本のID" style="text;html=1;strokeColor=none;fillColor=none;align=center;verticalAlign=middle;whiteSpace=wrap;rounded=0;fontColor=#000000;" vertex="1" parent="1">
                    <mxGeometry x="20" y="360" width="70" height="30" as="geometry"/>
                </mxCell>
                <mxCell id="53" value="蔵書情報&lt;br&gt;貸出状況&lt;br&gt;貸出予約" style="text;html=1;strokeColor=none;fillColor=none;align=center;verticalAlign=middle;whiteSpace=wrap;rounded=0;fontColor=#000000;" vertex="1" parent="1">
                    <mxGeometry x="120" y="360" width="60" height="30" as="geometry"/>
                </mxCell>
            </root>
        </mxGraphModel>
    </diagram>
</mxfile>